<mxfile host="app.diagrams.net" modified="2022-02-09T18:37:18.399Z" agent="5.0 (Windows)" etag="npBBTGTi-qRvQk_iYzPC" version="16.5.3" type="github">
  <diagram id="3sVR13qh0kA1qrEns1vK" name="Page-1">
    <mxGraphModel dx="1038" dy="564" grid="1" gridSize="10" guides="1" tooltips="1" connect="1" arrows="1" fold="1" page="1" pageScale="1" pageWidth="850" pageHeight="1100" math="0" shadow="0">
      <root>
        <mxCell id="0" />
        <mxCell id="1" parent="0" />
        <mxCell id="T9aUeLhxZC1GFTQrIrtE-9" style="edgeStyle=orthogonalEdgeStyle;rounded=0;orthogonalLoop=1;jettySize=auto;html=1;exitX=0.5;exitY=1;exitDx=0;exitDy=0;entryX=0;entryY=0.5;entryDx=0;entryDy=0;" edge="1" parent="1" source="T9aUeLhxZC1GFTQrIrtE-4" target="T9aUeLhxZC1GFTQrIrtE-8">
          <mxGeometry relative="1" as="geometry">
            <Array as="points">
              <mxPoint x="230" y="190" />
              <mxPoint x="230" y="280" />
            </Array>
          </mxGeometry>
        </mxCell>
        <mxCell id="T9aUeLhxZC1GFTQrIrtE-11" style="edgeStyle=orthogonalEdgeStyle;rounded=0;orthogonalLoop=1;jettySize=auto;html=1;entryX=0;entryY=0.5;entryDx=0;entryDy=0;" edge="1" parent="1" source="T9aUeLhxZC1GFTQrIrtE-4" target="T9aUeLhxZC1GFTQrIrtE-7">
          <mxGeometry relative="1" as="geometry" />
        </mxCell>
        <mxCell id="T9aUeLhxZC1GFTQrIrtE-39" value="" style="edgeStyle=orthogonalEdgeStyle;rounded=0;orthogonalLoop=1;jettySize=auto;html=1;" edge="1" parent="1" source="T9aUeLhxZC1GFTQrIrtE-4" target="T9aUeLhxZC1GFTQrIrtE-14">
          <mxGeometry relative="1" as="geometry" />
        </mxCell>
        <mxCell id="T9aUeLhxZC1GFTQrIrtE-42" style="edgeStyle=orthogonalEdgeStyle;rounded=0;orthogonalLoop=1;jettySize=auto;html=1;entryX=0.5;entryY=1;entryDx=0;entryDy=0;" edge="1" parent="1" source="T9aUeLhxZC1GFTQrIrtE-4" target="T9aUeLhxZC1GFTQrIrtE-23">
          <mxGeometry relative="1" as="geometry">
            <Array as="points">
              <mxPoint x="115" y="130" />
            </Array>
          </mxGeometry>
        </mxCell>
        <mxCell id="T9aUeLhxZC1GFTQrIrtE-43" style="edgeStyle=orthogonalEdgeStyle;rounded=0;orthogonalLoop=1;jettySize=auto;html=1;entryX=1.017;entryY=0.733;entryDx=0;entryDy=0;entryPerimeter=0;" edge="1" parent="1" source="T9aUeLhxZC1GFTQrIrtE-4" target="T9aUeLhxZC1GFTQrIrtE-22">
          <mxGeometry relative="1" as="geometry">
            <mxPoint x="180" y="110" as="targetPoint" />
          </mxGeometry>
        </mxCell>
        <mxCell id="T9aUeLhxZC1GFTQrIrtE-44" value="" style="edgeStyle=orthogonalEdgeStyle;rounded=0;orthogonalLoop=1;jettySize=auto;html=1;" edge="1" parent="1" source="T9aUeLhxZC1GFTQrIrtE-4" target="T9aUeLhxZC1GFTQrIrtE-32">
          <mxGeometry relative="1" as="geometry">
            <Array as="points">
              <mxPoint x="205" y="230" />
              <mxPoint x="205" y="230" />
            </Array>
          </mxGeometry>
        </mxCell>
        <mxCell id="T9aUeLhxZC1GFTQrIrtE-54" style="edgeStyle=orthogonalEdgeStyle;rounded=0;orthogonalLoop=1;jettySize=auto;html=1;entryX=0.5;entryY=0;entryDx=0;entryDy=0;" edge="1" parent="1" source="T9aUeLhxZC1GFTQrIrtE-4" target="T9aUeLhxZC1GFTQrIrtE-46">
          <mxGeometry relative="1" as="geometry">
            <Array as="points">
              <mxPoint x="190" y="200" />
              <mxPoint x="90" y="200" />
            </Array>
          </mxGeometry>
        </mxCell>
        <mxCell id="T9aUeLhxZC1GFTQrIrtE-4" value="Comunidad" style="rounded=0;whiteSpace=wrap;html=1;fillColor=#dae8fc;strokeColor=#6c8ebf;" vertex="1" parent="1">
          <mxGeometry x="140" y="130" width="100" height="60" as="geometry" />
        </mxCell>
        <mxCell id="T9aUeLhxZC1GFTQrIrtE-10" style="edgeStyle=orthogonalEdgeStyle;rounded=0;orthogonalLoop=1;jettySize=auto;html=1;exitX=0.5;exitY=1;exitDx=0;exitDy=0;entryX=1;entryY=0.5;entryDx=0;entryDy=0;" edge="1" parent="1" source="T9aUeLhxZC1GFTQrIrtE-5" target="T9aUeLhxZC1GFTQrIrtE-8">
          <mxGeometry relative="1" as="geometry">
            <Array as="points">
              <mxPoint x="590" y="190" />
              <mxPoint x="590" y="280" />
            </Array>
          </mxGeometry>
        </mxCell>
        <mxCell id="T9aUeLhxZC1GFTQrIrtE-5" value="Eventos" style="rounded=0;whiteSpace=wrap;html=1;fillColor=#dae8fc;strokeColor=#6c8ebf;" vertex="1" parent="1">
          <mxGeometry x="570" y="130" width="120" height="60" as="geometry" />
        </mxCell>
        <mxCell id="T9aUeLhxZC1GFTQrIrtE-45" style="edgeStyle=orthogonalEdgeStyle;rounded=0;orthogonalLoop=1;jettySize=auto;html=1;entryX=1;entryY=0.5;entryDx=0;entryDy=0;" edge="1" parent="1" source="T9aUeLhxZC1GFTQrIrtE-6" target="T9aUeLhxZC1GFTQrIrtE-32">
          <mxGeometry relative="1" as="geometry">
            <mxPoint x="330" y="400" as="targetPoint" />
            <Array as="points">
              <mxPoint x="380" y="340" />
            </Array>
          </mxGeometry>
        </mxCell>
        <mxCell id="T9aUeLhxZC1GFTQrIrtE-6" value="Personas" style="rounded=0;whiteSpace=wrap;html=1;fillColor=#dae8fc;strokeColor=#6c8ebf;" vertex="1" parent="1">
          <mxGeometry x="355" y="390" width="120" height="60" as="geometry" />
        </mxCell>
        <mxCell id="T9aUeLhxZC1GFTQrIrtE-12" style="edgeStyle=orthogonalEdgeStyle;rounded=0;orthogonalLoop=1;jettySize=auto;html=1;entryX=0;entryY=0.5;entryDx=0;entryDy=0;" edge="1" parent="1" source="T9aUeLhxZC1GFTQrIrtE-7" target="T9aUeLhxZC1GFTQrIrtE-5">
          <mxGeometry relative="1" as="geometry" />
        </mxCell>
        <mxCell id="T9aUeLhxZC1GFTQrIrtE-7" value="realiza" style="rhombus;whiteSpace=wrap;html=1;fillColor=#fff2cc;strokeColor=#d6b656;" vertex="1" parent="1">
          <mxGeometry x="375" y="120" width="75" height="80" as="geometry" />
        </mxCell>
        <mxCell id="T9aUeLhxZC1GFTQrIrtE-13" style="edgeStyle=orthogonalEdgeStyle;rounded=0;orthogonalLoop=1;jettySize=auto;html=1;exitX=0.5;exitY=1;exitDx=0;exitDy=0;entryX=0.5;entryY=0;entryDx=0;entryDy=0;" edge="1" parent="1" source="T9aUeLhxZC1GFTQrIrtE-8" target="T9aUeLhxZC1GFTQrIrtE-6">
          <mxGeometry relative="1" as="geometry" />
        </mxCell>
        <mxCell id="T9aUeLhxZC1GFTQrIrtE-8" value="tienen" style="rhombus;whiteSpace=wrap;html=1;fillColor=#fff2cc;strokeColor=#d6b656;" vertex="1" parent="1">
          <mxGeometry x="375" y="240" width="80" height="80" as="geometry" />
        </mxCell>
        <mxCell id="T9aUeLhxZC1GFTQrIrtE-14" value="Pais" style="ellipse;whiteSpace=wrap;html=1;fillColor=#f8cecc;strokeColor=#b85450;" vertex="1" parent="1">
          <mxGeometry x="170" y="40" width="70" height="20" as="geometry" />
        </mxCell>
        <mxCell id="T9aUeLhxZC1GFTQrIrtE-22" value="Redes Sociales" style="ellipse;whiteSpace=wrap;html=1;fillColor=#f8cecc;strokeColor=#b85450;" vertex="1" parent="1">
          <mxGeometry x="20" y="120" width="60" height="30" as="geometry" />
        </mxCell>
        <mxCell id="T9aUeLhxZC1GFTQrIrtE-23" value="Estado" style="ellipse;whiteSpace=wrap;html=1;fillColor=#f8cecc;strokeColor=#b85450;" vertex="1" parent="1">
          <mxGeometry x="80" y="70" width="70" height="20" as="geometry" />
        </mxCell>
        <mxCell id="T9aUeLhxZC1GFTQrIrtE-24" value="ID" style="ellipse;whiteSpace=wrap;html=1;fillColor=#f8cecc;strokeColor=#b85450;" vertex="1" parent="1">
          <mxGeometry x="377.5" y="480" width="70" height="20" as="geometry" />
        </mxCell>
        <mxCell id="T9aUeLhxZC1GFTQrIrtE-25" value="" style="ellipse;whiteSpace=wrap;html=1;fillColor=#f8cecc;strokeColor=#b85450;" vertex="1" parent="1">
          <mxGeometry x="260" y="470" width="70" height="20" as="geometry" />
        </mxCell>
        <mxCell id="T9aUeLhxZC1GFTQrIrtE-26" value="" style="ellipse;whiteSpace=wrap;html=1;fillColor=#f8cecc;strokeColor=#b85450;" vertex="1" parent="1">
          <mxGeometry x="710" y="70" width="70" height="20" as="geometry" />
        </mxCell>
        <mxCell id="T9aUeLhxZC1GFTQrIrtE-27" value="" style="ellipse;whiteSpace=wrap;html=1;fillColor=#f8cecc;strokeColor=#b85450;" vertex="1" parent="1">
          <mxGeometry x="630" y="40" width="70" height="20" as="geometry" />
        </mxCell>
        <mxCell id="T9aUeLhxZC1GFTQrIrtE-29" value="" style="ellipse;whiteSpace=wrap;html=1;fillColor=#f8cecc;strokeColor=#b85450;" vertex="1" parent="1">
          <mxGeometry x="230" y="410" width="70" height="20" as="geometry" />
        </mxCell>
        <mxCell id="T9aUeLhxZC1GFTQrIrtE-30" value="" style="ellipse;whiteSpace=wrap;html=1;fillColor=#f8cecc;strokeColor=#b85450;" vertex="1" parent="1">
          <mxGeometry x="500" y="470" width="70" height="20" as="geometry" />
        </mxCell>
        <mxCell id="T9aUeLhxZC1GFTQrIrtE-31" value="" style="ellipse;whiteSpace=wrap;html=1;fillColor=#f8cecc;strokeColor=#b85450;" vertex="1" parent="1">
          <mxGeometry x="520" y="410" width="70" height="20" as="geometry" />
        </mxCell>
        <mxCell id="T9aUeLhxZC1GFTQrIrtE-32" value="Nombre" style="ellipse;whiteSpace=wrap;html=1;fillColor=#f8cecc;strokeColor=#b85450;" vertex="1" parent="1">
          <mxGeometry x="170" y="330" width="70" height="20" as="geometry" />
        </mxCell>
        <mxCell id="T9aUeLhxZC1GFTQrIrtE-35" value="ID" style="ellipse;whiteSpace=wrap;html=1;fillColor=#f8cecc;strokeColor=#b85450;" vertex="1" parent="1">
          <mxGeometry x="650" y="235" width="70" height="20" as="geometry" />
        </mxCell>
        <mxCell id="T9aUeLhxZC1GFTQrIrtE-36" value="" style="ellipse;whiteSpace=wrap;html=1;fillColor=#f8cecc;strokeColor=#b85450;" vertex="1" parent="1">
          <mxGeometry x="730" y="190" width="70" height="20" as="geometry" />
        </mxCell>
        <mxCell id="T9aUeLhxZC1GFTQrIrtE-37" value="" style="ellipse;whiteSpace=wrap;html=1;fillColor=#f8cecc;strokeColor=#b85450;" vertex="1" parent="1">
          <mxGeometry x="730" y="130" width="70" height="20" as="geometry" />
        </mxCell>
        <mxCell id="T9aUeLhxZC1GFTQrIrtE-53" style="edgeStyle=orthogonalEdgeStyle;rounded=0;orthogonalLoop=1;jettySize=auto;html=1;entryX=0.5;entryY=0;entryDx=0;entryDy=0;" edge="1" parent="1" source="T9aUeLhxZC1GFTQrIrtE-46" target="T9aUeLhxZC1GFTQrIrtE-49">
          <mxGeometry relative="1" as="geometry">
            <mxPoint x="170" y="300" as="targetPoint" />
            <Array as="points">
              <mxPoint x="145" y="250" />
            </Array>
          </mxGeometry>
        </mxCell>
        <mxCell id="T9aUeLhxZC1GFTQrIrtE-55" style="edgeStyle=orthogonalEdgeStyle;rounded=0;orthogonalLoop=1;jettySize=auto;html=1;entryX=0.5;entryY=0;entryDx=0;entryDy=0;" edge="1" parent="1" source="T9aUeLhxZC1GFTQrIrtE-46" target="T9aUeLhxZC1GFTQrIrtE-50">
          <mxGeometry relative="1" as="geometry">
            <Array as="points">
              <mxPoint x="45" y="250" />
            </Array>
          </mxGeometry>
        </mxCell>
        <mxCell id="T9aUeLhxZC1GFTQrIrtE-46" value="tipo" style="rounded=1;whiteSpace=wrap;html=1;fillColor=#e1d5e7;strokeColor=#9673a6;" vertex="1" parent="1">
          <mxGeometry x="60" y="235" width="60" height="30" as="geometry" />
        </mxCell>
        <mxCell id="T9aUeLhxZC1GFTQrIrtE-49" value="Tecnologica" style="ellipse;whiteSpace=wrap;html=1;fillColor=#f8cecc;strokeColor=#b85450;" vertex="1" parent="1">
          <mxGeometry x="110" y="310" width="70" height="20" as="geometry" />
        </mxCell>
        <mxCell id="T9aUeLhxZC1GFTQrIrtE-50" value="Social" style="ellipse;whiteSpace=wrap;html=1;fillColor=#f8cecc;strokeColor=#b85450;" vertex="1" parent="1">
          <mxGeometry x="10" y="310" width="70" height="20" as="geometry" />
        </mxCell>
        <mxCell id="T9aUeLhxZC1GFTQrIrtE-51" value="ID" style="ellipse;whiteSpace=wrap;html=1;fillColor=#f8cecc;strokeColor=#b85450;" vertex="1" parent="1">
          <mxGeometry x="10" y="170" width="70" height="20" as="geometry" />
        </mxCell>
      </root>
    </mxGraphModel>
  </diagram>
</mxfile>
